<?xml version="1.0" ?><svg viewBox="0 0 32 32" xmlns="http://www.w3.org/2000/svg"><title/><g data-name="Layer 1" id="Layer_1"><path d="M26.7,24.16,18.54,16,26.7,7.82a1.79,1.79,0,0,0,0-2.53,1.83,1.83,0,0,0-2.54,0L16,13.45,7.83,5.29a1.84,1.84,0,0,0-2.53,0,1.79,1.79,0,0,0,0,2.54L13.46,16,5.3,24.15a1.79,1.79,0,1,0,2.53,2.54L16,18.53l8.17,8.17a1.83,1.83,0,0,0,2.54,0,1.79,1.79,0,0,0,0-2.54ZM26,26h0a.81.81,0,0,1-1.12,0l-8.52-8.52a.5.5,0,0,0-.71,0L7.12,26A.8.8,0,0,1,6,26a.79.79,0,0,1,0-1.12l8.52-8.52a.5.5,0,0,0,0-.71L6,7.11A.79.79,0,0,1,6,6a.78.78,0,0,1,.56-.23A.8.8,0,0,1,7.13,6l8.52,8.52a.5.5,0,0,0,.71,0L24.88,6A.8.8,0,0,1,26,6a.78.78,0,0,1,.23.56.8.8,0,0,1-.23.57l-8.52,8.52a.5.5,0,0,0,0,.71L26,24.87A.79.79,0,0,1,26,26Z"/></g></svg>